<svg xmlns="http://www.w3.org/2000/svg" width="184" height="128" viewBox="0 0 46 32" fill="none" stroke-linecap="round" stroke-linejoin="round">
  <g transform="rotate(-20 14 16)">
    <g stroke="#f2b33d" stroke-width="2.1">
      <circle cx="14" cy="5" r="2.2"/>
      <line x1="14" y1="7.2" x2="14" y2="25"/>
      <line x1="8.4" y1="10.2" x2="19.6" y2="10.2"/>
      <path d="M5 17.4C5 23.8 9.2 26.6 14 26.6 18.8 26.6 23 23.8 23 17.4"/>
      <path d="M5 17.4 2.4 16.3M5 17.4 4.7 20.2"/>
      <path d="M23 17.4 25.6 16.3M23 17.4 23.3 20.2"/>
    </g>
    <path d="M9.6 12.4C9.6 10.8 18.4 10.8 18.4 12.8 18.4 14.8 9.6 14.8 9.6 16.8 9.6 18.6 18.4 18.6 18.4 16.9" stroke="#d9a86b" stroke-width="1.8"/>
  </g>
  <path d="M23 23.4C28 27 31.5 22.5 35 24.2" stroke="#d9a86b" stroke-width="1.9"/>
  <g stroke="#f2b33d" stroke-width="1.7">
    <rect x="34" y="19.5" width="9" height="10" rx="1.8"/>
    <line x1="36" y1="22.6" x2="41" y2="22.6"/>
    <line x1="36" y1="26.4" x2="41" y2="26.4"/>
  </g>
  <circle cx="37" cy="24.5" r="0.85" fill="#4fbf8b"/>
</svg>
